<svg width="7" height="10" fill="none" xmlns="http://www.w3.org/2000/svg"><path d="m3.5 1 .53-.53a.75.75 0 0 0-1.06 0L3.5 1Zm0 8-.53.53a.75.75 0 0 0 1.06 0L3.5 9ZM.97 2.47a.75.75 0 0 0 1.06 1.06L.97 2.47Zm4 1.06a.75.75 0 1 0 1.06-1.06L4.97 3.53ZM2.03 6.47A.75.75 0 1 0 .97 7.53l1.06-1.06Zm4 1.06a.75.75 0 1 0-1.06-1.06l1.06 1.06ZM2.75 1v8h1.5V1h-1.5Zm.22-.53-2 2 1.06 1.06 2-2L2.97.47Zm0 1.06 2 2 1.06-1.06-2-2-1.06 1.06Zm1.06 6.94-2-2L.97 7.53l2 2 1.06-1.06Zm0 1.06 2-2-1.06-1.06-2 2 1.06 1.06Z" fill="#848484"/></svg>