<svg width="42" height="42" viewBox="0 0 42 42" fill="none" xmlns="http://www.w3.org/2000/svg">
<path d="M24.5457 3C24.8236 3.00001 25.0943 3.08821 25.3188 3.2519C25.5434 3.41559 25.7102 3.64633 25.7952 3.91088L27.239 8.397C27.8453 8.69362 28.4255 9.027 28.9793 9.40237L33.5888 8.41013C33.8606 8.3521 34.1438 8.38184 34.3976 8.49505C34.6514 8.60827 34.8627 8.79913 35.0011 9.04013L38.6393 15.3375C38.7783 15.5784 38.8371 15.8571 38.8074 16.1336C38.7777 16.41 38.6609 16.6699 38.474 16.8757L35.3108 20.367C35.3569 21.0365 35.3569 21.7083 35.3108 22.3778L38.474 25.8742C38.6609 26.0801 38.7777 26.34 38.8074 26.6164C38.8371 26.8929 38.7783 27.1716 38.6393 27.4125L35.0011 33.7125C34.8623 33.953 34.6508 34.1433 34.3971 34.2561C34.1433 34.3688 33.8603 34.3981 33.5888 34.3399L28.9793 33.3476C28.4281 33.7204 27.8453 34.0564 27.2416 34.353L25.7952 38.8391C25.7102 39.1037 25.5434 39.3344 25.3188 39.4981C25.0943 39.6618 24.8236 39.75 24.5457 39.75H17.2692C16.9913 39.75 16.7206 39.6618 16.4961 39.4981C16.2715 39.3344 16.1047 39.1037 16.0197 38.8391L14.5786 34.3556C13.9738 34.0599 13.3905 33.7222 12.8329 33.345L8.22607 34.3399C7.9543 34.3979 7.67111 34.3682 7.41732 34.2549C7.16352 34.1417 6.95221 33.9509 6.81382 33.7099L3.17557 27.4125C3.03665 27.1716 2.9778 26.8929 3.00752 26.6164C3.03724 26.34 3.154 26.0801 3.34095 25.8742L6.50407 22.3778C6.45826 21.71 6.45826 21.04 6.50407 20.3722L3.34095 16.8757C3.154 16.6699 3.03724 16.41 3.00752 16.1336C2.9778 15.8571 3.03665 15.5784 3.17557 15.3375L6.81382 9.0375C6.95259 8.79698 7.16407 8.60667 7.41783 8.49394C7.6716 8.38121 7.95458 8.35186 8.22607 8.41013L12.8329 9.405C13.3894 9.02963 13.9722 8.691 14.5786 8.39438L16.0223 3.91088C16.1071 3.64718 16.2731 3.41706 16.4966 3.25344C16.7201 3.08983 16.9896 3.00112 17.2666 3H24.5431H24.5457ZM23.585 5.625H18.2299L16.7389 10.2634L15.7336 10.7543C15.2393 10.9961 14.7622 11.2715 14.3056 11.5785L13.3763 12.2085L8.60932 11.1795L5.93182 15.8205L9.19995 19.4377L9.1212 20.5507C9.08348 21.0996 9.08348 21.6504 9.1212 22.1993L9.19995 23.3123L5.92657 26.9295L8.6067 31.5705L13.3737 30.5441L14.3029 31.1715C14.7596 31.4785 15.2367 31.7539 15.7309 31.9957L16.7363 32.4866L18.2299 37.125H23.5902L25.0865 32.484L26.0892 31.9957C26.5829 31.7545 27.0592 31.479 27.5146 31.1715L28.4412 30.5441L33.2108 31.5705L35.8883 26.9295L32.6176 23.3123L32.6963 22.1993C32.7342 21.6495 32.7342 21.0978 32.6963 20.5481L32.6176 19.4351L35.891 15.8205L33.2108 11.1795L28.4412 12.2032L27.5146 11.5785C27.0592 11.2709 26.5829 10.9955 26.0892 10.7543L25.0865 10.266L23.5876 5.625H23.585Z" fill="#161A20"/>
<circle cx="20.9062" cy="21.375" r="5" fill="#161A20"/>
</svg>
