<svg width="42" height="42" viewBox="0 0 42 42" fill="none" xmlns="http://www.w3.org/2000/svg">
<path d="M30.3509 27.9341L30.3505 27.9344C28.2466 29.7428 25.6243 30.9653 22.7438 31.3447L22.7438 31.3447L22.7319 31.3464C22.1004 31.4366 21.4571 31.4789 20.7857 31.4789C20.1149 31.4789 19.475 31.4367 18.8353 31.3523L18.8352 31.3523C15.9543 30.9728 13.3405 29.7578 11.2302 27.936L11.227 27.9332C8.08905 25.2455 6.1 21.2522 6.1 16.7857C6.1 8.6763 12.6763 2.1 20.7857 2.1C28.8958 2.1 35.4789 8.67698 35.4789 16.7857C35.4789 21.2441 33.4903 25.2382 30.3509 27.9341Z" stroke="#161A20" stroke-width="2.2" stroke-miterlimit="10"/>
<path d="M20.7936 10.6777L22.8878 14.5561L27.2198 15.3424L24.1806 18.5328L24.7627 22.895L20.7936 20.9898L16.8245 22.895L17.4142 18.5328L14.375 15.3424L18.707 14.5561L20.7936 10.6777Z" fill="#161A20"/>
<mask id="path-3-inside-1_178_39" fill="white">
<path d="M29.9412 29.4209L33.4326 37.9999L29.1516 37.6324L26.3976 40.9998L22.9062 32.4209"/>
</mask>
<path d="M33.4326 37.9999L33.2444 40.1918L36.8249 40.4992L35.4703 37.1706L33.4326 37.9999ZM29.1516 37.6324L29.3397 35.4405L28.1833 35.3412L27.4485 36.2397L29.1516 37.6324ZM26.3976 40.9998L24.3599 41.8291L25.756 45.2596L28.1006 42.3926L26.3976 40.9998ZM27.9035 30.2502L31.3949 38.8292L35.4703 37.1706L31.9789 28.5916L27.9035 30.2502ZM33.6207 35.8079L29.3397 35.4405L28.9634 39.8243L33.2444 40.1918L33.6207 35.8079ZM27.4485 36.2397L24.6946 39.6071L28.1006 42.3926L30.8546 39.0251L27.4485 36.2397ZM28.4353 40.1706L24.944 31.5916L20.8685 33.2502L24.3599 41.8291L28.4353 40.1706Z" fill="#161A20" mask="url(#path-3-inside-1_178_39)"/>
<mask id="path-5-inside-2_178_39" fill="white">
<path d="M11.655 29.4209L8.16797 37.9999L12.4451 37.6324L15.2073 40.9998L18.6943 32.4209"/>
</mask>
<path d="M8.16797 37.9999L6.12989 37.1715L4.77727 40.4993L8.35629 40.1918L8.16797 37.9999ZM12.4451 37.6324L14.1461 36.2372L13.4112 35.3413L12.2568 35.4405L12.4451 37.6324ZM15.2073 40.9998L13.5063 42.3951L15.8524 45.2553L17.2454 41.8282L15.2073 40.9998ZM9.61689 28.5925L6.12989 37.1715L10.206 38.8283L13.6931 30.2493L9.61689 28.5925ZM8.35629 40.1918L12.6334 39.8243L12.2568 35.4405L7.97964 35.808L8.35629 40.1918ZM10.7441 39.0276L13.5063 42.3951L16.9083 39.6046L14.1461 36.2372L10.7441 39.0276ZM17.2454 41.8282L20.7324 33.2493L16.6562 31.5925L13.1692 40.1715L17.2454 41.8282Z" fill="#161A20" mask="url(#path-5-inside-2_178_39)"/>
</svg>
