<svg width="42" height="42" viewBox="0 0 42 42" fill="none" xmlns="http://www.w3.org/2000/svg">
<path d="M37.9635 9.6905C37.8642 9.93035 37.696 10.1354 37.4802 10.2796C37.2644 10.4239 37.0106 10.5009 36.751 10.501H32.8135V17.0635C32.8137 17.2359 32.7798 17.4066 32.714 17.566C32.6481 17.7253 32.5515 17.8701 32.4296 17.9921L22.3135 28.1065V35.4385C22.3135 35.7866 22.1753 36.1204 21.9291 36.3666C21.683 36.6127 21.3491 36.751 21.001 36.751C20.6529 36.751 20.3191 36.6127 20.073 36.3666C19.8268 36.1204 19.6885 35.7866 19.6885 35.4385V28.1065L9.57244 17.9921C9.4506 17.8701 9.35398 17.7253 9.28811 17.566C9.22223 17.4066 9.1884 17.2359 9.18853 17.0635V10.501H5.25103C4.9913 10.5012 4.73734 10.4243 4.52131 10.2801C4.30528 10.1359 4.13689 9.93084 4.03747 9.69089C3.93804 9.45093 3.91205 9.18687 3.96278 8.93213C4.01351 8.6774 4.13868 8.44344 4.32244 8.25988L9.57244 3.00988C9.69434 2.88785 9.83909 2.79104 9.99843 2.72499C10.1578 2.65894 10.3286 2.62494 10.501 2.62494C10.6735 2.62494 10.8443 2.65894 11.0036 2.72499C11.163 2.79104 11.3077 2.88785 11.4296 3.00988L16.6796 8.25988C16.8634 8.44344 16.9886 8.6774 17.0393 8.93213C17.09 9.18687 17.064 9.45093 16.9646 9.69089C16.8652 9.93084 16.6968 10.1359 16.4808 10.2801C16.2647 10.4243 16.0108 10.5012 15.751 10.501H11.8135V16.5204L21.001 25.7079L30.1885 16.5204V10.501H26.251C25.9913 10.5012 25.7373 10.4243 25.5213 10.2801C25.3053 10.1359 25.1369 9.93084 25.0375 9.69089C24.938 9.45093 24.9121 9.18687 24.9628 8.93213C25.0135 8.6774 25.1387 8.44344 25.3224 8.25988L30.5724 3.00988C30.6943 2.88785 30.8391 2.79104 30.9984 2.72499C31.1578 2.65894 31.3286 2.62494 31.501 2.62494C31.6735 2.62494 31.8443 2.65894 32.0036 2.72499C32.163 2.79104 32.3077 2.88785 32.4296 3.00988L37.6796 8.25988C37.8631 8.44354 37.988 8.67749 38.0386 8.93214C38.0891 9.18679 38.0629 9.45071 37.9635 9.6905ZM10.501 5.79402L8.41908 7.87597H12.583L10.501 5.79402ZM31.501 5.79402L29.4191 7.87597H33.583L31.501 5.79402Z" fill="#161A20"/>
</svg>
