<svg width="42" height="42" viewBox="0 0 42 42" fill="none" xmlns="http://www.w3.org/2000/svg">
<g clip-path="url(#clip0_178_33)">
<path d="M16.5556 34.3333V34.0956C16.5556 32.3289 15.4533 30.7889 14.0733 29.6867C12.2721 28.2502 10.962 26.2894 10.3242 24.0756C9.68646 21.8618 9.75262 19.5045 10.5135 17.3299C11.2745 15.1554 12.6925 13.2711 14.5715 11.9379C16.4504 10.6048 18.6973 9.88863 21.0011 9.88863C23.305 9.88863 25.5518 10.6048 27.4308 11.9379C29.3097 13.2711 30.7278 15.1554 31.4887 17.3299C32.2496 19.5045 32.3158 21.8618 31.678 24.0756C31.0402 26.2894 29.7301 28.2502 27.9289 29.6867C26.5467 30.7911 25.4444 32.3289 25.4444 34.0956V34.3333M16.5556 34.3333V38.7778C16.5556 39.3671 16.7897 39.9324 17.2064 40.3491C17.6232 40.7659 18.1884 41 18.7778 41H23.2222C23.8116 41 24.3768 40.7659 24.7936 40.3491C25.2103 39.9324 25.4444 39.3671 25.4444 38.7778V34.3333M16.5556 34.3333H25.4444M38.7778 21H41M3.22222 21H1M21 3.22222V1M33.5711 8.42889L35.1422 6.85778M8.43111 8.42889L6.85778 6.85778M21 27.6667V23.2222" stroke="black" stroke-width="2.4" stroke-linecap="round" stroke-linejoin="round"/>
</g>
<defs>
<clipPath id="clip0_178_33">
<rect width="42" height="42" fill="white"/>
</clipPath>
</defs>
</svg>
