<svg width="7" height="10" viewBox="0 0 7 10" fill="none" xmlns="http://www.w3.org/2000/svg">
<path d="M3.50015 0.999828L4.03015 0.469828C3.88953 0.329378 3.6989 0.250488 3.50015 0.250488C3.3014 0.250488 3.11078 0.329378 2.97015 0.469828L3.50015 0.999828ZM3.50015 8.99983L2.97015 9.52983C3.11078 9.67028 3.3014 9.74917 3.50015 9.74917C3.6989 9.74917 3.88953 9.67028 4.03015 9.52983L3.50015 8.99983ZM0.970154 2.46983C0.837674 2.612 0.76555 2.80005 0.768978 2.99435C0.772407 3.18865 0.851119 3.37404 0.988532 3.51145C1.12595 3.64886 1.31133 3.72758 1.50563 3.731C1.69993 3.73443 1.88798 3.66231 2.03015 3.52983L0.970154 2.46983ZM4.97015 3.52983C5.03882 3.60352 5.12162 3.66262 5.21362 3.70361C5.30562 3.7446 5.40493 3.76664 5.50563 3.76842C5.60633 3.7702 5.70636 3.75167 5.79975 3.71395C5.89314 3.67623 5.97797 3.62009 6.04919 3.54887C6.12041 3.47765 6.17656 3.39281 6.21428 3.29943C6.252 3.20604 6.27052 3.10601 6.26875 3.00531C6.26697 2.9046 6.24493 2.80529 6.20394 2.71329C6.16294 2.62129 6.10384 2.53849 6.03015 2.46983L4.97015 3.52983ZM2.03015 6.46983C1.96149 6.39614 1.87869 6.33704 1.78669 6.29605C1.69469 6.25506 1.59538 6.23301 1.49468 6.23124C1.39397 6.22946 1.29394 6.24798 1.20056 6.28571C1.10717 6.32343 1.02233 6.37957 0.951116 6.45079C0.879897 6.52201 0.823752 6.60684 0.786031 6.70023C0.74831 6.79362 0.729785 6.89365 0.731562 6.99435C0.733339 7.09505 0.755381 7.19437 0.796373 7.28637C0.837365 7.37837 0.896467 7.46117 0.970154 7.52983L2.03015 6.46983ZM6.03015 7.52983C6.10384 7.46117 6.16294 7.37837 6.20394 7.28637C6.24493 7.19437 6.26697 7.09505 6.26875 6.99435C6.27052 6.89365 6.252 6.79362 6.21428 6.70023C6.17656 6.60684 6.12041 6.52201 6.04919 6.45079C5.97797 6.37957 5.89314 6.32343 5.79975 6.28571C5.70636 6.24798 5.60633 6.22946 5.50563 6.23124C5.40493 6.23301 5.30562 6.25506 5.21362 6.29605C5.12162 6.33704 5.03882 6.39614 4.97015 6.46983L6.03015 7.52983ZM2.75015 0.999828V8.99983H4.25015V0.999828H2.75015ZM2.97015 0.469828L0.970154 2.46983L2.03015 3.52983L4.03015 1.52983L2.97015 0.469828ZM2.97015 1.52983L4.97015 3.52983L6.03015 2.46983L4.03015 0.469828L2.97015 1.52983ZM4.03015 8.46983L2.03015 6.46983L0.970154 7.52983L2.97015 9.52983L4.03015 8.46983ZM4.03015 9.52983L6.03015 7.52983L4.97015 6.46983L2.97015 8.46983L4.03015 9.52983Z" fill="#848484"/>
</svg>
