<svg width="25" height="24" viewBox="0 0 25 24" fill="none" xmlns="http://www.w3.org/2000/svg">
<path d="M3.75 10V14H5.25V10H3.75ZM21.25 14V10H19.75V14H21.25ZM21.25 10C21.25 7.67936 20.3281 5.45376 18.6872 3.81282C17.0462 2.17187 14.8206 1.25 12.5 1.25V2.75C14.4228 2.75 16.2669 3.51384 17.6265 4.87348C18.9862 6.23311 19.75 8.07718 19.75 10H21.25ZM12.5 22.75C13.6491 22.75 14.7869 22.5237 15.8485 22.0839C16.9101 21.6442 17.8747 20.9997 18.6872 20.1872C19.4997 19.3747 20.1442 18.4101 20.5839 17.3485C21.0237 16.2869 21.25 15.1491 21.25 14H19.75C19.75 15.9228 18.9862 17.7669 17.6265 19.1265C16.2669 20.4862 14.4228 21.25 12.5 21.25V22.75ZM3.75 14C3.75 16.3206 4.67187 18.5462 6.31282 20.1872C7.95376 21.8281 10.1794 22.75 12.5 22.75V21.25C10.5772 21.25 8.73311 20.4862 7.37348 19.1265C6.01384 17.7669 5.25 15.9228 5.25 14H3.75ZM5.25 10C5.25 8.07718 6.01384 6.23311 7.37348 4.87348C8.73311 3.51384 10.5772 2.75 12.5 2.75V1.25C10.1794 1.25 7.95376 2.17187 6.31282 3.81282C4.67187 5.45376 3.75 7.67936 3.75 10H5.25Z" fill="#848484"/>
<path d="M12.5002 4.99983L13.0302 4.46983C12.8895 4.32938 12.6989 4.25049 12.5002 4.25049C12.3014 4.25049 12.1108 4.32938 11.9702 4.46983L12.5002 4.99983ZM12.5002 12.9998L11.9702 13.5298C12.1108 13.6703 12.3014 13.7492 12.5002 13.7492C12.6989 13.7492 12.8895 13.6703 13.0302 13.5298L12.5002 12.9998ZM9.97015 6.46983C9.83767 6.612 9.76555 6.80005 9.76898 6.99435C9.77241 7.18865 9.85112 7.37404 9.98853 7.51145C10.1259 7.64886 10.3113 7.72758 10.5056 7.731C10.6999 7.73443 10.888 7.66231 11.0302 7.52983L9.97015 6.46983ZM13.9702 7.52983C14.0388 7.60352 14.1216 7.66262 14.2136 7.70361C14.3056 7.7446 14.4049 7.76664 14.5056 7.76842C14.6063 7.7702 14.7064 7.75167 14.7998 7.71395C14.8931 7.67623 14.978 7.62009 15.0492 7.54887C15.1204 7.47765 15.1766 7.39281 15.2143 7.29943C15.252 7.20604 15.2705 7.10601 15.2687 7.00531C15.267 6.9046 15.2449 6.80529 15.2039 6.71329C15.1629 6.62129 15.1038 6.53849 15.0302 6.46983L13.9702 7.52983ZM11.0302 10.4698C10.9615 10.3961 10.8787 10.337 10.7867 10.296C10.6947 10.2551 10.5954 10.233 10.4947 10.2312C10.394 10.2295 10.2939 10.248 10.2006 10.2857C10.1072 10.3234 10.0223 10.3796 9.95112 10.4508C9.8799 10.522 9.82375 10.6068 9.78603 10.7002C9.74831 10.7936 9.72979 10.8936 9.73156 10.9944C9.73334 11.0951 9.75538 11.1944 9.79637 11.2864C9.83736 11.3784 9.89647 11.4612 9.97015 11.5298L11.0302 10.4698ZM15.0302 11.5298C15.1038 11.4612 15.1629 11.3784 15.2039 11.2864C15.2449 11.1944 15.267 11.0951 15.2687 10.9944C15.2705 10.8936 15.252 10.7936 15.2143 10.7002C15.1766 10.6068 15.1204 10.522 15.0492 10.4508C14.978 10.3796 14.8931 10.3234 14.7998 10.2857C14.7064 10.248 14.6063 10.2295 14.5056 10.2312C14.4049 10.233 14.3056 10.2551 14.2136 10.296C14.1216 10.337 14.0388 10.3961 13.9702 10.4698L15.0302 11.5298ZM11.7502 4.99983V12.9998H13.2502V4.99983H11.7502ZM11.9702 4.46983L9.97015 6.46983L11.0302 7.52983L13.0302 5.52983L11.9702 4.46983ZM11.9702 5.52983L13.9702 7.52983L15.0302 6.46983L13.0302 4.46983L11.9702 5.52983ZM13.0302 12.4698L11.0302 10.4698L9.97015 11.5298L11.9702 13.5298L13.0302 12.4698ZM13.0302 13.5298L15.0302 11.5298L13.9702 10.4698L11.9702 12.4698L13.0302 13.5298Z" fill="#848484"/>
</svg>
