<svg width="19" height="22" viewBox="0 0 19 22" fill="none" xmlns="http://www.w3.org/2000/svg">
<path d="M0.75 9V13H2.25V9H0.75ZM18.25 13V9H16.75V13H18.25ZM18.25 9C18.25 6.67936 17.3281 4.45376 15.6872 2.81282C14.0462 1.17187 11.8206 0.25 9.5 0.25V1.75C11.4228 1.75 13.2669 2.51384 14.6265 3.87348C15.9862 5.23311 16.75 7.07718 16.75 9H18.25ZM9.5 21.75C10.6491 21.75 11.7869 21.5237 12.8485 21.0839C13.9101 20.6442 14.8747 19.9997 15.6872 19.1872C16.4997 18.3747 17.1442 17.4101 17.5839 16.3485C18.0237 15.2869 18.25 14.1491 18.25 13H16.75C16.75 14.9228 15.9862 16.7669 14.6265 18.1265C13.2669 19.4862 11.4228 20.25 9.5 20.25V21.75ZM0.75 13C0.75 15.3206 1.67187 17.5462 3.31282 19.1872C4.95376 20.8281 7.17936 21.75 9.5 21.75V20.25C7.57718 20.25 5.73311 19.4862 4.37348 18.1265C3.01384 16.7669 2.25 14.9228 2.25 13H0.75ZM2.25 9C2.25 7.07718 3.01384 5.23311 4.37348 3.87348C5.73311 2.51384 7.57718 1.75 9.5 1.75V0.25C7.17936 0.25 4.95376 1.17187 3.31282 2.81282C1.67187 4.45376 0.75 6.67936 0.75 9H2.25Z" fill="#848484"/>
</svg>
