<svg width="68" height="68" viewBox="0 0 68 68" fill="none" xmlns="http://www.w3.org/2000/svg">
<path fill-rule="evenodd" clip-rule="evenodd" d="M34.0013 0.666992C15.5918 0.666992 0.667969 15.5908 0.667969 34.0003C0.667969 52.4098 15.5918 67.3337 34.0013 67.3337C52.4108 67.3337 67.3346 52.4098 67.3346 34.0003C67.3346 15.5908 52.4108 0.666992 34.0013 0.666992ZM34.0013 60.667C19.2737 60.667 7.33464 48.7279 7.33464 34.0003C7.33464 19.2727 19.2737 7.33366 34.0013 7.33366C48.7289 7.33366 60.668 19.2727 60.668 34.0003C60.668 48.7279 48.7289 60.667 34.0013 60.667ZM30.4022 38.6336L43.0022 21.9669H42.9689C44.0919 20.4941 46.1961 20.2106 47.6689 21.3336C49.1417 22.4565 49.4252 24.5608 48.3022 26.0336L33.0689 46.0336C32.4396 46.851 31.4672 47.3311 30.4356 47.3336C29.4096 47.3391 28.4383 46.8719 27.8022 46.0669L19.7022 35.7002C18.5701 34.2459 18.8312 32.1491 20.2856 31.0169C21.7399 29.8847 23.8367 30.1459 24.9689 31.6002L30.4022 38.6336Z" fill="#18A957"/>
</svg>
